# xmcd
#
# Track frame offsets:
#	150
#	18179
#	35461
#	53774
#	71398
#	86044
#	101991
#	119287
#	138509
#	154905
#
# Disc length: 2260 seconds
#
# Revision: 1
# Processed by: cddbd v1.5.2PL0 Copyright (c) Steve Scherf et al.
# Submitted via: audiograbber 1.83.01
#
DISCID=8208d20a
DTITLE=Various Artist - CDX Volume 554 (September 10, 2012)
DYEAR=2012
DGENRE=Country
TTITLE0=The Farm Inc. - Be Grateful
TTITLE1=Gary Allan - Every Storm (Runs Out Of Rain)
TTITLE2=Darius Rucker - True Believers
TTITLE3=The Time Jumpers [with Vince Gill] - On The Outskirts Of Town 
TTITLE4=Cadillac Black - Get Your Buzz On 
TTITLE5=Brent Cobb - Love On Me
TTITLE6=Johnny Rowland - My Name Is Freedom
TTITLE7=Pete [Stringfellow] - Pole Dance
TTITLE8=Garrett Morgan - She's The One 
TTITLE9=Bobby Dean - You Can't Drink 'Em All
EXTD=
EXTT0=
EXTT1=
EXTT2=
EXTT3=
EXTT4=
EXTT5=
EXTT6=
EXTT7=
EXTT8=
EXTT9=
PLAYORDER=
